<svg width="2050" height="500" viewBox="0 0 2050 500" fill="none" xmlns="http://www.w3.org/2000/svg">
<mask id="mask0_3_62" style="mask-type:luminance" maskUnits="userSpaceOnUse" x="0" y="0" width="2050" height="500">
<path d="M0 0H2049.33V499.833H0V0Z" fill="white"/>
</mask>
<g mask="url(#mask0_3_62)">
<mask id="mask1_3_62" style="mask-type:luminance" maskUnits="userSpaceOnUse" x="0" y="-1" width="2050" height="501">
<path d="M2050 -0.083313H0V499.917H2050V-0.083313Z" fill="black" fill-opacity="0.8588"/>
</mask>
<g mask="url(#mask1_3_62)">
<mask id="mask2_3_62" style="mask-type:luminance" maskUnits="userSpaceOnUse" x="0" y="-1" width="2050" height="501">
<path d="M2049.33 -0.083313H0V499.917H2049.33V-0.083313Z" fill="white"/>
</mask>
<g mask="url(#mask2_3_62)">
<mask id="mask3_3_62" style="mask-type:luminance" maskUnits="userSpaceOnUse" x="0" y="125" width="2050" height="375">
<path d="M0 125.25H2049.33V499.833H0V125.25Z" fill="white"/>
</mask>
<g mask="url(#mask3_3_62)">
<mask id="mask4_3_62" style="mask-type:luminance" maskUnits="userSpaceOnUse" x="-496" y="-1254" width="3042" height="3009">
<path d="M2545.19 439.953L732.406 1754.09L-495.448 60.3229L1317.33 -1253.81L2545.19 439.953Z" fill="white"/>
</mask>
<g mask="url(#mask4_3_62)">
<mask id="mask5_3_62" style="mask-type:luminance" maskUnits="userSpaceOnUse" x="-496" y="-1254" width="3042" height="3009">
<path d="M2545.19 439.953L732.406 1754.09L-495.448 60.3229L1317.33 -1253.81L2545.19 439.953Z" fill="white"/>
</mask>
<g mask="url(#mask5_3_62)">
<mask id="mask6_3_62" style="mask-type:luminance" maskUnits="userSpaceOnUse" x="-234" y="125" width="2407" height="864">
<path d="M-232.88 283.438C-222.099 431.833 640.437 868.427 928.015 937.99C1268.72 1020.29 1677.25 1017.9 1981.72 815.026C2543.42 440.583 1743.6 -96.3333 1135.93 223.505C610.469 499.953 -261.464 -109.786 -232.88 283.438Z" fill="white"/>
</mask>
<g mask="url(#mask6_3_62)">
<path d="M-237.521 172.182L1343.37 -973.844L2286.85 327.651L705.963 1473.68L-237.521 172.182Z" fill="url(#paint0_linear_3_62)"/>
</g>
</g>
</g>
</g>
</g>
</g>
</g>
<defs>
<linearGradient id="paint0_linear_3_62" x1="457.849" y1="-331.914" x2="1401.34" y2="969.579" gradientUnits="userSpaceOnUse">
<stop stop-color="#1595FF"/>
<stop offset="1" stop-color="#5436FF"/>
</linearGradient>
</defs>
</svg>
