<svg width="2047" height="779" viewBox="0 0 2047 779" fill="none" xmlns="http://www.w3.org/2000/svg">
<mask id="mask0_3_4" style="mask-type:luminance" maskUnits="userSpaceOnUse" x="0" y="0" width="2047" height="779">
<path d="M0 0H2046.5V778.667H0V0Z" fill="white"/>
</mask>
<g mask="url(#mask0_3_4)">
<mask id="mask1_3_4" style="mask-type:luminance" maskUnits="userSpaceOnUse" x="-2" y="0" width="2051" height="780">
<path d="M2048.58 0H-1.41663V780H2048.58V0Z" fill="black" fill-opacity="0.8588"/>
</mask>
<g mask="url(#mask1_3_4)">
<mask id="mask2_3_4" style="mask-type:luminance" maskUnits="userSpaceOnUse" x="-1" y="0" width="2048" height="779">
<path d="M2046.58 0H-0.083313V778.667H2046.58V0Z" fill="white"/>
</mask>
<g mask="url(#mask2_3_4)">
<mask id="mask3_3_4" style="mask-type:luminance" maskUnits="userSpaceOnUse" x="0" y="0" width="2047" height="779">
<path d="M3.05176e-05 0H2046.5V778.667H3.05176e-05V0Z" fill="white"/>
</mask>
<g mask="url(#mask3_3_4)">
<mask id="mask4_3_4" style="mask-type:luminance" maskUnits="userSpaceOnUse" x="-388" y="-275" width="2759" height="1054">
<path d="M-387.573 -246.37C-84.8697 -152.187 38.9063 7.93233 120.974 221.87C177.479 367.188 217.839 599.958 494.984 606.688C664.495 610.724 750.599 495.01 925.495 555.557C1066.76 603.995 1099.05 754.693 1315.65 731.823C1520.15 708.948 1497.28 415.625 1727.33 509.813C1868.59 567.667 1954.69 858.302 2163.22 757.385C2352.92 665.891 2394.63 340.276 2359.65 205.724C2289.69 -59.3437 1892.81 -141.422 1559.16 -219.464C1003.53 -349.979 165.37 -203.318 -387.573 -246.37Z" fill="white"/>
</mask>
<g mask="url(#mask4_3_4)">
<path d="M6.10352e-05 778.667V0H2046.5V778.667H6.10352e-05Z" fill="url(#paint0_linear_3_4)"/>
</g>
</g>
</g>
</g>
</g>
<g filter="url(#filter0_d_3_4)">
<path d="M475.994 291.576V275.064H541.786V291.576H475.994ZM530.138 241.4H548.442V331H530.138V241.4ZM469.978 241.4H488.282V331H469.978V241.4ZM579.504 331V315.512H624.688V331H579.504ZM579.504 256.888V241.4H624.688V256.888H579.504ZM579.504 291.064V275.832H622.128V291.064H579.504ZM567.728 241.4H585.392V331H567.728V241.4ZM642.728 241.4H661.032V315H696.744V331H642.728V241.4ZM707.228 241.4H725.532V315H761.244V331H707.228V241.4ZM782.061 286.2C782.061 291.917 783.256 296.995 785.645 301.432C788.034 305.869 791.32 309.368 795.501 311.928C799.682 314.488 804.546 315.768 810.093 315.768C815.64 315.768 820.504 314.488 824.685 311.928C828.866 309.368 832.109 305.869 834.413 301.432C836.802 296.995 837.997 291.917 837.997 286.2C837.997 280.483 836.845 275.405 834.541 270.968C832.237 266.531 828.994 263.032 824.813 260.472C820.632 257.912 815.725 256.632 810.093 256.632C804.546 256.632 799.682 257.912 795.501 260.472C791.32 263.032 788.034 266.531 785.645 270.968C783.256 275.405 782.061 280.483 782.061 286.2ZM762.733 286.2C762.733 279.373 763.928 273.144 766.317 267.512C768.706 261.795 772.034 256.845 776.301 252.664C780.568 248.483 785.56 245.283 791.277 243.064C797.08 240.76 803.352 239.608 810.093 239.608C816.92 239.608 823.192 240.76 828.909 243.064C834.626 245.283 839.618 248.483 843.885 252.664C848.237 256.845 851.565 261.795 853.869 267.512C856.258 273.144 857.453 279.373 857.453 286.2C857.453 292.941 856.258 299.213 853.869 305.016C851.565 310.733 848.28 315.725 844.013 319.992C839.832 324.259 834.84 327.587 829.037 329.976C823.32 332.28 817.005 333.432 810.093 333.432C803.181 333.432 796.824 332.28 791.021 329.976C785.304 327.587 780.312 324.259 776.045 319.992C771.778 315.725 768.493 310.733 766.189 305.016C763.885 299.213 762.733 292.941 762.733 286.2ZM874.512 316.92L891.024 321.016L875.536 353.016L863.248 350.072L874.512 316.92ZM946.978 241.4H965.538V331H946.978V241.4ZM989.589 241.4H1007.51L994.581 281.464H983.701L989.589 241.4ZM1042.94 280.696L1037.18 331H1018.11L1031.42 236.92L1068.92 294.776L1106.43 236.92L1119.74 331H1100.67L1094.91 280.696L1068.92 322.68L1042.94 280.696ZM1184.25 331V315.512H1229.44V331H1184.25ZM1184.25 256.888V241.4H1229.44V256.888H1184.25ZM1184.25 291.064V275.832H1226.88V291.064H1184.25ZM1172.48 241.4H1190.14V331H1172.48V241.4ZM1247.48 241.4H1266.17V331H1247.48V241.4ZM1277.94 331H1259.25V314.36H1277.3C1281.23 314.36 1284.94 313.848 1288.44 312.824C1291.94 311.715 1295.01 310.008 1297.65 307.704C1300.3 305.4 1302.35 302.499 1303.8 299C1305.33 295.416 1306.1 291.149 1306.1 286.2C1306.1 281.251 1305.33 277.027 1303.8 273.528C1302.35 269.944 1300.3 267 1297.65 264.696C1295.01 262.392 1291.94 260.728 1288.44 259.704C1284.94 258.595 1281.23 258.04 1277.3 258.04H1259.25V241.4H1277.94C1287.33 241.4 1295.52 243.235 1302.52 246.904C1309.6 250.573 1315.1 255.779 1319.03 262.52C1322.96 269.176 1324.92 277.069 1324.92 286.2C1324.92 295.331 1322.96 303.267 1319.03 310.008C1315.1 316.664 1309.6 321.827 1302.52 325.496C1295.52 329.165 1287.33 331 1277.94 331ZM1338.46 241.4H1356.77V300.408C1356.77 305.528 1358.09 309.667 1360.74 312.824C1363.47 315.896 1367.48 317.432 1372.77 317.432C1378.06 317.432 1382.03 315.896 1384.67 312.824C1387.4 309.667 1388.77 305.528 1388.77 300.408V241.4H1407.07V301.56C1407.07 306.851 1406.22 311.501 1404.51 315.512C1402.8 319.523 1400.37 322.893 1397.22 325.624C1394.14 328.355 1390.52 330.403 1386.34 331.768C1382.15 333.219 1377.63 333.944 1372.77 333.944C1367.82 333.944 1363.25 333.219 1359.07 331.768C1354.89 330.403 1351.26 328.355 1348.19 325.624C1345.12 322.893 1342.73 319.523 1341.02 315.512C1339.32 311.501 1338.46 306.851 1338.46 301.56V241.4ZM1438.14 310.648L1440.32 296.184H1483.33L1485.5 310.648H1438.14ZM1461.57 270.456L1448.13 301.304L1448.51 305.4L1436.74 331H1416.13L1461.57 236.152L1507.01 331H1486.27L1474.75 306.168L1475.01 301.56L1461.57 270.456ZM1537.08 289.272H1556.41L1585.59 331H1563.96L1537.08 289.272ZM1516.73 241.4H1535.03V331H1516.73V241.4ZM1527.86 257.016V241.4H1546.81C1553.89 241.4 1559.91 242.595 1564.86 244.984C1569.81 247.373 1573.6 250.701 1576.25 254.968C1578.89 259.235 1580.22 264.227 1580.22 269.944C1580.22 275.576 1578.89 280.568 1576.25 284.92C1573.6 289.187 1569.81 292.515 1564.86 294.904C1559.91 297.293 1553.89 298.488 1546.81 298.488H1527.86V283.896H1545.66C1548.9 283.896 1551.67 283.384 1553.98 282.36C1556.37 281.251 1558.2 279.715 1559.48 277.752C1560.76 275.704 1561.4 273.272 1561.4 270.456C1561.4 267.64 1560.76 265.251 1559.48 263.288C1558.2 261.24 1556.37 259.704 1553.98 258.68C1551.67 257.571 1548.9 257.016 1545.66 257.016H1527.86ZM1596.1 241.4H1614.79V331H1596.1V241.4ZM1626.57 331H1607.88V314.36H1625.93C1629.85 314.36 1633.56 313.848 1637.06 312.824C1640.56 311.715 1643.63 310.008 1646.28 307.704C1648.92 305.4 1650.97 302.499 1652.42 299C1653.96 295.416 1654.73 291.149 1654.73 286.2C1654.73 281.251 1653.96 277.027 1652.42 273.528C1650.97 269.944 1648.92 267 1646.28 264.696C1643.63 262.392 1640.56 260.728 1637.06 259.704C1633.56 258.595 1629.85 258.04 1625.93 258.04H1607.88V241.4H1626.57C1635.95 241.4 1644.15 243.235 1651.14 246.904C1658.23 250.573 1663.73 255.779 1667.66 262.52C1671.58 269.176 1673.54 277.069 1673.54 286.2C1673.54 295.331 1671.58 303.267 1667.66 310.008C1663.73 316.664 1658.23 321.827 1651.14 325.496C1644.15 329.165 1635.95 331 1626.57 331ZM1701.94 286.2C1701.94 291.917 1703.13 296.995 1705.52 301.432C1707.91 305.869 1711.19 309.368 1715.38 311.928C1719.56 314.488 1724.42 315.768 1729.97 315.768C1735.51 315.768 1740.38 314.488 1744.56 311.928C1748.74 309.368 1751.98 305.869 1754.29 301.432C1756.68 296.995 1757.87 291.917 1757.87 286.2C1757.87 280.483 1756.72 275.405 1754.42 270.968C1752.11 266.531 1748.87 263.032 1744.69 260.472C1740.51 257.912 1735.6 256.632 1729.97 256.632C1724.42 256.632 1719.56 257.912 1715.38 260.472C1711.19 263.032 1707.91 266.531 1705.52 270.968C1703.13 275.405 1701.94 280.483 1701.94 286.2ZM1682.61 286.2C1682.61 279.373 1683.8 273.144 1686.19 267.512C1688.58 261.795 1691.91 256.845 1696.18 252.664C1700.44 248.483 1705.43 245.283 1711.15 243.064C1716.95 240.76 1723.23 239.608 1729.97 239.608C1736.79 239.608 1743.07 240.76 1748.78 243.064C1754.5 245.283 1759.49 248.483 1763.76 252.664C1768.11 256.845 1771.44 261.795 1773.74 267.512C1776.13 273.144 1777.33 279.373 1777.33 286.2C1777.33 292.941 1776.13 299.213 1773.74 305.016C1771.44 310.733 1768.15 315.725 1763.89 319.992C1759.71 324.259 1754.71 327.587 1748.91 329.976C1743.19 332.28 1736.88 333.432 1729.97 333.432C1723.06 333.432 1716.7 332.28 1710.9 329.976C1705.18 327.587 1700.19 324.259 1695.92 319.992C1691.65 315.725 1688.37 310.733 1686.06 305.016C1683.76 299.213 1682.61 292.941 1682.61 286.2Z" fill="white"/>
</g>
<defs>
<filter id="filter0_d_3_4" x="464.878" y="234.052" width="1325.55" height="135.064" filterUnits="userSpaceOnUse" color-interpolation-filters="sRGB">
<feFlood flood-opacity="0" result="BackgroundImageFix"/>
<feColorMatrix in="SourceAlpha" type="matrix" values="0 0 0 0 0 0 0 0 0 0 0 0 0 0 0 0 0 0 127 0" result="hardAlpha"/>
<feOffset dx="4" dy="7"/>
<feGaussianBlur stdDeviation="4.55"/>
<feComposite in2="hardAlpha" operator="out"/>
<feColorMatrix type="matrix" values="0 0 0 0 0 0 0 0 0 0 0 0 0 0 0 0 0 0 0.4 0"/>
<feBlend mode="normal" in2="BackgroundImageFix" result="effect1_dropShadow_3_4"/>
<feBlend mode="normal" in="SourceGraphic" in2="effect1_dropShadow_3_4" result="shape"/>
</filter>
<linearGradient id="paint0_linear_3_4" x1="-0.00216632" y1="252.143" x2="2046.5" y2="252.143" gradientUnits="userSpaceOnUse">
<stop stop-color="#61E4D5"/>
<stop offset="1" stop-color="#38A5FF"/>
</linearGradient>
</defs>
</svg>
